<svg xmlns="http://www.w3.org/2000/svg" width="170" height="136.446" viewBox="0 0 260.489 136.446">
    <g id="Group_2" data-name="Group 2" transform="translate(-30 -400.275)" opacity="0.05">
        <circle id="Ellipse_1" data-name="Ellipse 1" cx="6.202" cy="6.202" r="6.202" transform="translate(216.063 524.318)" fill="#062a72"></circle>
        <circle id="Ellipse_2" data-name="Ellipse 2" cx="6.202" cy="6.202" r="6.202" transform="translate(278.085 524.318)" fill="#062a72"></circle>
        <circle id="Ellipse_3" data-name="Ellipse 3" cx="6.202" cy="6.202" r="6.202" transform="translate(216.063 462.297)" fill="#062a72"></circle>
        <circle id="Ellipse_4" data-name="Ellipse 4" cx="6.202" cy="6.202" r="6.202" transform="translate(278.085 462.297)" fill="#062a72"></circle>
        <circle id="Ellipse_5" data-name="Ellipse 5" cx="6.202" cy="6.202" r="6.202" transform="translate(216.063 400.275)" fill="#062a72"></circle>
        <circle id="Ellipse_6" data-name="Ellipse 6" cx="6.202" cy="6.202" r="6.202" transform="translate(278.085 400.275)" fill="#062a72"></circle>
        <circle id="Ellipse_7" data-name="Ellipse 7" cx="6.202" cy="6.202" r="6.202" transform="translate(30 524.318)" fill="#062a72"></circle>
        <circle id="Ellipse_8" data-name="Ellipse 8" cx="6.202" cy="6.202" r="6.202" transform="translate(92.021 524.318)" fill="#062a72"></circle>
        <circle id="Ellipse_9" data-name="Ellipse 9" cx="6.202" cy="6.202" r="6.202" transform="translate(154.042 524.318)" fill="#062a72"></circle>
        <circle id="Ellipse_10" data-name="Ellipse 10" cx="6.202" cy="6.202" r="6.202" transform="translate(30 462.297)" fill="#062a72"></circle>
        <circle id="Ellipse_11" data-name="Ellipse 11" cx="6.202" cy="6.202" r="6.202" transform="translate(92.021 462.297)" fill="#062a72"></circle>
        <circle id="Ellipse_12" data-name="Ellipse 12" cx="6.202" cy="6.202" r="6.202" transform="translate(154.042 462.297)" fill="#062a72"></circle>
        <circle id="Ellipse_13" data-name="Ellipse 13" cx="6.202" cy="6.202" r="6.202" transform="translate(30 400.275)" fill="#062a72"></circle>
        <circle id="Ellipse_14" data-name="Ellipse 14" cx="6.202" cy="6.202" r="6.202" transform="translate(92.021 400.275)" fill="#062a72"></circle>
        <circle id="Ellipse_15" data-name="Ellipse 15" cx="6.202" cy="6.202" r="6.202" transform="translate(154.042 400.275)" fill="#062a72"></circle>
    </g>
</svg>