<svg xmlns="http://www.w3.org/2000/svg" width="162.241" height="27.21" viewBox="0 0 162.241 27.21">
                        <g id="Main" transform="translate(-0.295 -0.534)">
                          <path id="Path_1" data-name="Path 1" d="M408.068,7.847a9.272,9.272,0,0,0-16.693-3.308A9.682,9.682,0,0,0,380.818,5.8,9.7,9.7,0,0,0,367.156,7.88h-.39a9.629,9.629,0,0,0-4.926,1.345l1.785,2.029a7.029,7.029,0,0,1,4.92-.512,7.077,7.077,0,0,1,12.38-1.059,7.071,7.071,0,0,1,11.547-1.008,6.627,6.627,0,1,1,13.109,1.96,10.448,10.448,0,0,1,1.871-.167,9.775,9.775,0,0,1,7.264,3.108l1.82-1.9a12.4,12.4,0,0,0-8.469-3.831Z" transform="translate(-254.001)" fill="#105ac6"></path>
                          <path id="Path_2" data-name="Path 2" d="M372.057,57.952c0,2.047-1.728,3.766-5,3.766A6.5,6.5,0,0,1,362,59.684l1.707-1.957a4.492,4.492,0,0,0,3.513,1.532c1.19,0,1.785-.5,1.785-1.255,0-2.16-6.452-1.107-6.452-5.423,0-1.832,1.559-3.59,4.619-3.59a5.644,5.644,0,0,1,4.759,1.984L370.2,52.78a3.656,3.656,0,0,0-2.96-1.33c-1.056,0-1.684.476-1.684,1.13C365.569,54.689,372.057,53.455,372.057,57.952Z" transform="translate(-254.113 -34.043)" fill="#105ac6"></path>
                          <path id="Path_3" data-name="Path 3" d="M410.7,60.053a4.658,4.658,0,0,1-3.668,1.657c-3.186,0-5.774-2.612-5.774-6.351,0-3.641,2.436-6.377,5.774-6.377a4.673,4.673,0,0,1,3.668,1.556v-1.19h3.088V61.359H410.7Zm0-4.721a3.257,3.257,0,0,0-3.165-3.462,3.491,3.491,0,1,0,3.165,3.462Z" transform="translate(-281.695 -34.034)" fill="#105ac6"></path>
                          <path id="Path_4" data-name="Path 4" d="M455.521,61.388H452.46V49.362h3.061v1.19a4.084,4.084,0,0,1,3.388-1.532c2.787,0,4.569,1.957,4.569,5.1v7.273h-3.061V54.547a2.456,2.456,0,1,0-4.9,0Z" transform="translate(-317.665 -34.064)" fill="#105ac6"></path>
                          <path id="Path_5" data-name="Path 5" d="M505.381,57.952c0,2.032-1.731,3.766-4.994,3.766a6.5,6.5,0,0,1-5.057-2.035l1.7-1.957a4.5,4.5,0,0,0,3.516,1.532c1.19,0,1.785-.5,1.785-1.255,0-2.16-6.452-1.107-6.452-5.423,0-1.832,1.556-3.59,4.62-3.59a5.644,5.644,0,0,1,4.759,1.984l-1.7,1.806a3.659,3.659,0,0,0-2.975-1.33c-1.053,0-1.681.476-1.681,1.13C498.905,54.689,505.381,53.455,505.381,57.952Z" transform="translate(-347.783 -34.043)" fill="#105ac6"></path>
                          <path id="Path_6" data-name="Path 6" d="M344.42,34.68a1.8,1.8,0,1,1,1.8,1.8A1.8,1.8,0,0,1,344.42,34.68Zm3.34,15.438H344.7V38.092h3.064Z" transform="translate(-241.762 -22.728)" fill="#105ac6"></path>
                          <path id="Path_7" data-name="Path 7" d="M307.38,43.041h2.133V39.93h3.064v3.111h3.272v2.713H312.6v5.1c0,1.13.476,1.681,1.38,1.681a1.925,1.925,0,0,0,1.407-.595l1.38,2.293a4.721,4.721,0,0,1-3.29,1.19c-2.433,0-3.989-1.532-3.989-4.462v-5.2H307.38Z" transform="translate(-215.74 -27.678)" fill="#105ac6"></path>
                          <path id="Path_8" data-name="Path 8" d="M6.769,51.787a3.476,3.476,0,0,0-.018,6.949,4.025,4.025,0,0,0,2.975-1.19l1.556,2.261a6.316,6.316,0,0,1-4.6,1.809,6.365,6.365,0,1,1-.051-12.73,6.464,6.464,0,0,1,4.759,1.81L9.64,52.878a3.867,3.867,0,0,0-2.87-1.092Z" transform="translate(0 -33.969)" fill="#105ac6"></path>
                          <path id="Path_9" data-name="Path 9" d="M44.4,32.48h3.061V49.75H44.4Z" transform="translate(-30.986 -22.444)" fill="#105ac6"></path>
                          <path id="Path_10" data-name="Path 10" d="M61.779,55.848a6.294,6.294,0,1,1,1.807,4.47,6.264,6.264,0,0,1-1.807-4.47Zm9.438-.027a3.255,3.255,0,0,0-3.162-3.462,3.486,3.486,0,0,0,0,6.952A3.262,3.262,0,0,0,71.218,55.821Z" transform="translate(-43.195 -34.52)" fill="#105ac6"></path>
                          <path id="Path_11" data-name="Path 11" d="M113.173,56.722c0,1.761,1.029,2.951,2.549,2.951a2.631,2.631,0,0,0,2.561-2.936V50.22h3.061v6.728a5.622,5.622,0,0,1-11.244,0V50.22h3.061Z" transform="translate(-77.143 -34.907)" fill="#105ac6"></path>
                          <path id="Path_12" data-name="Path 12" d="M167.176,32.76V50.03h-3.088V48.725a4.658,4.658,0,0,1-3.665,1.657c-3.189,0-5.774-2.612-5.774-6.351,0-3.641,2.433-6.377,5.774-6.377a4.67,4.67,0,0,1,3.665,1.556V32.76ZM164.088,44a3.257,3.257,0,0,0-3.165-3.462A3.491,3.491,0,1,0,164.088,44Z" transform="translate(-108.441 -22.64)" fill="#105ac6"></path>
                          <path id="Path_13" data-name="Path 13" d="M234.288,60.273a4.652,4.652,0,0,1-3.665,1.657c-3.189,0-5.774-2.612-5.774-6.351,0-3.641,2.436-6.377,5.774-6.377a4.667,4.667,0,0,1,3.665,1.556v-1.19h3.1V61.579h-3.1Zm0-4.721a3.255,3.255,0,0,0-3.162-3.462,3.486,3.486,0,0,0,.015,6.952A3.242,3.242,0,0,0,234.288,55.552Z" transform="translate(-157.759 -34.189)" fill="#105ac6"></path>
                          <path id="Path_14" data-name="Path 14" d="M278.764,61.582H275.7V49.556h3.064v1.306A3.492,3.492,0,0,1,281.7,49.2a3.055,3.055,0,0,1,1.933.595l-1.27,2.912a2.6,2.6,0,0,0-1.582-.529c-1.231,0-2.008,1.029-2.008,2.677Z" transform="translate(-193.484 -34.192)" fill="#105ac6"></path>
                        </g>
                    </svg>